<svg width="249" height="115" viewBox="0 0 249 115" fill="none" xmlns="http://www.w3.org/2000/svg">
<path d="M3.966 18.8H32.766V28.4H14.526V46.16H29.022V55.76H14.526V76.4H32.766V86H3.966V18.8ZM35.001 18.8H45.561V76.4H62.937V86H35.001V18.8ZM127.498 86.96C122.378 86.96 118.506 85.52 115.882 82.64C113.258 79.696 111.946 75.504 111.946 70.064V66.224H121.93V70.832C121.93 75.184 123.754 77.36 127.402 77.36C129.194 77.36 130.538 76.848 131.434 75.824C132.394 74.736 132.874 73.008 132.874 70.64C132.874 67.824 132.234 65.36 130.954 63.248C129.674 61.072 127.306 58.48 123.85 55.472C119.498 51.632 116.458 48.176 114.73 45.104C113.002 41.968 112.138 38.448 112.138 34.544C112.138 29.232 113.482 25.136 116.17 22.256C118.858 19.312 122.762 17.84 127.882 17.84C132.938 17.84 136.746 19.312 139.306 22.256C141.93 25.136 143.242 29.296 143.242 34.736V37.52H133.258V34.064C133.258 31.76 132.81 30.096 131.914 29.072C131.018 27.984 129.706 27.44 127.978 27.44C124.458 27.44 122.698 29.584 122.698 33.872C122.698 36.304 123.338 38.576 124.618 40.688C125.962 42.8 128.362 45.36 131.818 48.368C136.234 52.208 139.274 55.696 140.938 58.832C142.602 61.968 143.434 65.648 143.434 69.872C143.434 75.376 142.058 79.6 139.306 82.544C136.618 85.488 132.682 86.96 127.498 86.96ZM154.782 57.392L142.014 18.8H153.246L160.446 43.472H160.638L167.838 18.8H178.11L165.342 57.392V86H154.782V57.392ZM179.027 18.8H192.275L202.547 59.024H202.739V18.8H212.147V86H201.299L188.627 36.944H188.435V86H179.027V18.8ZM231.036 86.96C225.98 86.96 222.108 85.52 219.42 82.64C216.796 79.76 215.484 75.696 215.484 70.448V34.352C215.484 29.104 216.796 25.04 219.42 22.16C222.108 19.28 225.98 17.84 231.036 17.84C236.092 17.84 239.932 19.28 242.556 22.16C245.244 25.04 246.588 29.104 246.588 34.352V41.456H236.604V33.68C236.604 29.52 234.844 27.44 231.324 27.44C227.804 27.44 226.044 29.52 226.044 33.68V71.216C226.044 75.312 227.804 77.36 231.324 77.36C234.844 77.36 236.604 75.312 236.604 71.216V60.944H246.588V70.448C246.588 75.696 245.244 79.76 242.556 82.64C239.932 85.52 236.092 86.96 231.036 86.96Z" fill="url(#paint0_linear_199_1925)"/>
<path d="M52.7754 57.7355L82.3723 81.5687L110.786 56.3363L81.1889 32.5031L52.7754 57.7355Z" fill="black"/>
<defs>
<linearGradient id="paint0_linear_199_1925" x1="0" y1="57.5" x2="249" y2="57.5" gradientUnits="userSpaceOnUse">
<stop offset="0.115385" stop-color="#00968B" stop-opacity="0.84"/>
<stop offset="0.442308" stop-color="#00B8AB"/>
<stop offset="0.985577" stop-color="#00524C" stop-opacity="0.65"/>
</linearGradient>
</defs>
</svg>
